name ./resultDataOpenSim/trcMotMarkerGrf/sub06/grf-13-08.mot
datacolumns 19
datarows 22
range 1.04400000 1.12800000
endheader

                time	     ground_force_vx	     ground_force_vy	     ground_force_vz	     ground_force_px	     ground_force_py	     ground_force_pz	   l_ground_force_vx	   l_ground_force_vy	   l_ground_force_vz	   l_ground_force_px	   l_ground_force_py	   l_ground_force_pz	     ground_torque_x	     ground_torque_y	     ground_torque_z	   l_ground_torque_x	   l_ground_torque_y	   l_ground_torque_z	
          1.04400000	          0.00000000	          0.00000000	          0.00000000	          0.00000000	          0.00000000	          0.00000000	         60.02653987	        489.90259395	         13.58319618	          0.10465893	         -0.05000200	         -0.02908396	          0.00000000	          0.00000000	          0.00000000	          0.00000000	         -2.37957090	          0.00000000	
          1.04800000	          0.00000000	          0.00000000	          0.00000000	          0.00000000	          0.00000000	          0.00000000	         63.64784509	        507.38918745	         15.62224810	          0.10503864	         -0.05000200	         -0.02902899	          0.00000000	          0.00000000	          0.00000000	          0.00000000	         -2.41771733	          0.00000000	
          1.05200000	          0.00000000	          0.00000000	          0.00000000	          0.00000000	          0.00000000	          0.00000000	         67.48318318	        525.79004118	         17.69846929	          0.10549501	         -0.05000200	         -0.02891741	          0.00000000	          0.00000000	          0.00000000	          0.00000000	         -2.45932325	          0.00000000	
          1.05600000	          0.00000000	          0.00000000	          0.00000000	          0.00000000	          0.00000000	          0.00000000	         71.54579891	        544.85709838	         19.69882886	          0.10604381	         -0.05000200	         -0.02875459	          0.00000000	          0.00000000	          0.00000000	          0.00000000	         -2.50741978	          0.00000000	
          1.06000000	          0.00000000	          0.00000000	          0.00000000	          0.00000000	          0.00000000	          0.00000000	         75.83792515	        564.27187319	         21.51500731	          0.10670667	         -0.05000200	         -0.02853915	          0.00000000	          0.00000000	          0.00000000	          0.00000000	         -2.56403655	          0.00000000	
          1.06400000	          0.00000000	          0.00000000	          0.00000000	          0.00000000	          0.00000000	          0.00000000	         80.37083894	        583.67893253	         23.06330482	          0.10746278	         -0.05000200	         -0.02827485	          0.00000000	          0.00000000	          0.00000000	          0.00000000	         -2.63004759	          0.00000000	
          1.06800000	          0.00000000	          0.00000000	          0.00000000	          0.00000000	          0.00000000	          0.00000000	         85.17542450	        602.74385277	         24.29840772	          0.10823370	         -0.05000200	         -0.02797471	          0.00000000	          0.00000000	          0.00000000	          0.00000000	         -2.70497402	          0.00000000	
          1.07200000	          0.00000000	          0.00000000	          0.00000000	          0.00000000	          0.00000000	          0.00000000	         90.28726322	        621.18346837	         25.21140557	          0.10894767	         -0.05000200	         -0.02764379	          0.00000000	          0.00000000	          0.00000000	          0.00000000	         -2.78681198	          0.00000000	
          1.07600000	          0.00000000	          0.00000000	          0.00000000	          0.00000000	          0.00000000	          0.00000000	         95.71949659	        638.74546474	         25.82867891	          0.10958625	         -0.05000200	         -0.02727000	          0.00000000	          0.00000000	          0.00000000	          0.00000000	         -2.87206946	          0.00000000	
          1.08000000	          0.00000000	          0.00000000	          0.00000000	          0.00000000	          0.00000000	          0.00000000	        101.45440316	        655.18673392	         26.21569997	          0.11016410	         -0.05000200	         -0.02684905	          0.00000000	          0.00000000	          0.00000000	          0.00000000	         -2.95625045	          0.00000000	
          1.08400000	          0.00000000	          0.00000000	          0.00000000	          0.00000000	          0.00000000	          0.00000000	        107.45334253	        670.28777927	         26.46131576	          0.11068585	         -0.05000200	         -0.02640091	          0.00000000	          0.00000000	          0.00000000	          0.00000000	         -3.03484481	          0.00000000	
          1.08800000	          0.00000000	          0.00000000	          0.00000000	          0.00000000	          0.00000000	          0.00000000	        113.66394972	        683.85305441	         26.63945955	          0.11113872	         -0.05000200	         -0.02594206	          0.00000000	          0.00000000	          0.00000000	          0.00000000	         -3.10451236	          0.00000000	
          1.09200000	          0.00000000	          0.00000000	          0.00000000	          0.00000000	          0.00000000	          0.00000000	        120.03042753	        695.67030965	         26.77639739	          0.11153786	         -0.05000200	         -0.02547812	          0.00000000	          0.00000000	          0.00000000	          0.00000000	         -3.16391294	          0.00000000	
          1.09600000	          0.00000000	          0.00000000	          0.00000000	          0.00000000	          0.00000000	          0.00000000	        126.50959445	        705.49945212	         26.84447779	          0.11194025	         -0.05000200	         -0.02500600	          0.00000000	          0.00000000	          0.00000000	          0.00000000	         -3.21374690	          0.00000000	
          1.10000000	          0.00000000	          0.00000000	          0.00000000	          0.00000000	          0.00000000	          0.00000000	        133.07635049	        713.12159541	         26.78220195	          0.11238308	         -0.05000200	         -0.02454191	          0.00000000	          0.00000000	          0.00000000	          0.00000000	         -3.25594801	          0.00000000	
          1.10400000	          0.00000000	          0.00000000	          0.00000000	          0.00000000	          0.00000000	          0.00000000	        139.71424740	        718.38956371	         26.52433507	          0.11288338	         -0.05000184	         -0.02409700	          0.00000000	          0.00000000	          0.00000000	          0.00000000	         -3.29237392	          0.00000000	
          1.10800000	          0.00000000	          0.00000000	          0.00000000	          0.00000000	          0.00000000	          0.00000000	        146.39324496	        721.23001122	         26.03021580	          0.11344047	         -0.05000107	         -0.02366507	          0.00000000	          0.00000000	          0.00000000	          0.00000000	         -3.32355323	          0.00000000	
          1.11200000	          0.00000000	          0.00000000	          0.00000000	          0.00000000	          0.00000000	          0.00000000	        153.04969926	        721.60930951	         25.30282668	          0.11404515	         -0.05000100	         -0.02324264	          0.00000000	          0.00000000	          0.00000000	          0.00000000	         -3.34798366	          0.00000000	
          1.11600000	          0.00000000	          0.00000000	          0.00000000	          0.00000000	          0.00000000	          0.00000000	        159.58610819	        719.50560803	         24.38314308	          0.11468690	         -0.05000100	         -0.02282774	          0.00000000	          0.00000000	          0.00000000	          0.00000000	         -3.36219655	          0.00000000	
          1.12000000	          0.00000000	          0.00000000	          0.00000000	          0.00000000	          0.00000000	          0.00000000	        165.87625534	        714.89068044	         23.32425583	          0.11535782	         -0.05000100	         -0.02241545	          0.00000000	          0.00000000	          0.00000000	          0.00000000	         -3.36146818	          0.00000000	
          1.12400000	          0.00000000	          0.00000000	          0.00000000	          0.00000000	          0.00000000	          0.00000000	        171.77069332	        707.69519073	         22.16868921	          0.11606846	         -0.05000024	         -0.02199107	          0.00000000	          0.00000000	          0.00000000	          0.00000000	         -3.34084560	          0.00000000	
          1.12800000	          0.00000000	          0.00000000	          0.00000000	          0.00000000	          0.00000000	          0.00000000	        177.11985601	        697.78314087	         20.93438393	          0.11683175	         -0.05000000	         -0.02154664	          0.00000000	          0.00000000	          0.00000000	          0.00000000	         -3.29614713	          0.00000000	
